<mxfile host="app.diagrams.net" modified="2023-05-19T16:59:55.692Z" agent="Mozilla/5.0 (Windows NT 10.0; Win64; x64) AppleWebKit/537.36 (KHTML, like Gecko) Chrome/113.0.0.0 Safari/537.36" etag="L0s36xtmm2hzNAu_uT1X" version="21.1.1">
  <diagram name="Página-1" id="shHBtzeU7dWwsqT2lI3S">
    <mxGraphModel dx="5160" dy="3509" grid="1" gridSize="10" guides="1" tooltips="1" connect="1" arrows="1" fold="1" page="1" pageScale="1" pageWidth="827" pageHeight="1169" math="0" shadow="0">
      <root>
        <mxCell id="0" />
        <mxCell id="1" parent="0" />
        <mxCell id="VVCzBVWR_Hz-Hk0Qz9Dq-1" value="Usuario" style="swimlane;fontStyle=1;align=center;verticalAlign=top;childLayout=stackLayout;horizontal=1;startSize=26;horizontalStack=0;resizeParent=1;resizeParentMax=0;resizeLast=0;collapsible=1;marginBottom=0;whiteSpace=wrap;html=1;" parent="1" vertex="1">
          <mxGeometry x="1000" y="-120" width="560" height="230" as="geometry" />
        </mxCell>
        <mxCell id="VVCzBVWR_Hz-Hk0Qz9Dq-2" value="+UserSaldo&lt;br&gt;+Usernumber&lt;br&gt;+datos: dict" style="text;strokeColor=none;fillColor=none;align=left;verticalAlign=top;spacingLeft=4;spacingRight=4;overflow=hidden;rotatable=0;points=[[0,0.5],[1,0.5]];portConstraint=eastwest;whiteSpace=wrap;html=1;" parent="VVCzBVWR_Hz-Hk0Qz9Dq-1" vertex="1">
          <mxGeometry y="26" width="560" height="44" as="geometry" />
        </mxCell>
        <mxCell id="VVCzBVWR_Hz-Hk0Qz9Dq-3" value="" style="line;strokeWidth=1;fillColor=none;align=left;verticalAlign=middle;spacingTop=-1;spacingLeft=3;spacingRight=3;rotatable=0;labelPosition=right;points=[];portConstraint=eastwest;strokeColor=inherit;" parent="VVCzBVWR_Hz-Hk0Qz9Dq-1" vertex="1">
          <mxGeometry y="70" width="560" height="12" as="geometry" />
        </mxCell>
        <mxCell id="VVCzBVWR_Hz-Hk0Qz9Dq-4" value="+ guardar_datos(nombre, apellido, email, contraseña, contraseña_verificacion, saldo, numero_cuenta)&lt;br&gt;+ actualizar_datos(nombre, apellido, email, contraseña, contraseña_verificacion)&lt;br&gt;+ correo_existe(email)&lt;span style=&quot;&quot;&gt;&lt;/span&gt;&lt;br&gt;+ validar_datos(email, contraseña)&lt;br&gt;+ obtener_saldo()&lt;span style=&quot;&quot;&gt;&lt;/span&gt;&lt;br&gt;+ obetener_contraseña()&lt;span style=&quot;&quot;&gt;&lt;/span&gt;&lt;br&gt;+ actualizar_saldo(nuevo_saldo)&lt;br&gt;+ realizar_transferencia(destinatario, monto)&lt;span style=&quot;&quot;&gt;&lt;/span&gt;&lt;br&gt;+ obtener_usuario_por_correo(correo)&lt;span style=&quot;&quot;&gt;&lt;/span&gt;" style="text;strokeColor=none;fillColor=none;align=left;verticalAlign=top;spacingLeft=4;spacingRight=4;overflow=hidden;rotatable=0;points=[[0,0.5],[1,0.5]];portConstraint=eastwest;whiteSpace=wrap;html=1;" parent="VVCzBVWR_Hz-Hk0Qz9Dq-1" vertex="1">
          <mxGeometry y="82" width="560" height="148" as="geometry" />
        </mxCell>
        <mxCell id="bdfrWbdDiE_PRyxbpn6V-10" value="AccountWindow" style="swimlane;fontStyle=1;align=center;verticalAlign=top;childLayout=stackLayout;horizontal=1;startSize=26;horizontalStack=0;resizeParent=1;resizeParentMax=0;resizeLast=0;collapsible=1;marginBottom=0;whiteSpace=wrap;html=1;" vertex="1" parent="1">
          <mxGeometry x="1654" y="140" width="560" height="190" as="geometry" />
        </mxCell>
        <mxCell id="bdfrWbdDiE_PRyxbpn6V-11" value="&lt;div&gt;- usuario: Usuario&lt;/div&gt;&lt;div&gt;- nombre_usuario: str&lt;/div&gt;&lt;div&gt;- apellido_usuario: str&lt;/div&gt;" style="text;strokeColor=none;fillColor=none;align=left;verticalAlign=top;spacingLeft=4;spacingRight=4;overflow=hidden;rotatable=0;points=[[0,0.5],[1,0.5]];portConstraint=eastwest;whiteSpace=wrap;html=1;" vertex="1" parent="bdfrWbdDiE_PRyxbpn6V-10">
          <mxGeometry y="26" width="560" height="54" as="geometry" />
        </mxCell>
        <mxCell id="bdfrWbdDiE_PRyxbpn6V-12" value="" style="line;strokeWidth=1;fillColor=none;align=left;verticalAlign=middle;spacingTop=-1;spacingLeft=3;spacingRight=3;rotatable=0;labelPosition=right;points=[];portConstraint=eastwest;strokeColor=inherit;" vertex="1" parent="bdfrWbdDiE_PRyxbpn6V-10">
          <mxGeometry y="80" width="560" height="12" as="geometry" />
        </mxCell>
        <mxCell id="bdfrWbdDiE_PRyxbpn6V-13" value="+&amp;nbsp;__init__()&lt;br&gt;+ ver_saldo(self)&lt;br&gt;+ hacer_transferencia(self)&lt;br&gt;+&amp;nbsp;hacer_retiro()&lt;br&gt;+&amp;nbsp;actualizar_datos()&lt;br&gt;+ cerrar_sesion(self)" style="text;strokeColor=none;fillColor=none;align=left;verticalAlign=top;spacingLeft=4;spacingRight=4;overflow=hidden;rotatable=0;points=[[0,0.5],[1,0.5]];portConstraint=eastwest;whiteSpace=wrap;html=1;" vertex="1" parent="bdfrWbdDiE_PRyxbpn6V-10">
          <mxGeometry y="92" width="560" height="98" as="geometry" />
        </mxCell>
        <mxCell id="bdfrWbdDiE_PRyxbpn6V-14" value="TransferenciaWindow" style="swimlane;fontStyle=1;align=center;verticalAlign=top;childLayout=stackLayout;horizontal=1;startSize=26;horizontalStack=0;resizeParent=1;resizeParentMax=0;resizeLast=0;collapsible=1;marginBottom=0;whiteSpace=wrap;html=1;" vertex="1" parent="1">
          <mxGeometry x="1660" y="350" width="560" height="160" as="geometry" />
        </mxCell>
        <mxCell id="bdfrWbdDiE_PRyxbpn6V-15" value="&lt;div&gt;- usuario: Usuario&lt;/div&gt;&lt;div&gt;- destinatario_entry: Entry&lt;/div&gt;&lt;div&gt;- monto_entry: Entry&amp;nbsp; &amp;nbsp;&lt;/div&gt;" style="text;strokeColor=none;fillColor=none;align=left;verticalAlign=top;spacingLeft=4;spacingRight=4;overflow=hidden;rotatable=0;points=[[0,0.5],[1,0.5]];portConstraint=eastwest;whiteSpace=wrap;html=1;" vertex="1" parent="bdfrWbdDiE_PRyxbpn6V-14">
          <mxGeometry y="26" width="560" height="54" as="geometry" />
        </mxCell>
        <mxCell id="bdfrWbdDiE_PRyxbpn6V-16" value="" style="line;strokeWidth=1;fillColor=none;align=left;verticalAlign=middle;spacingTop=-1;spacingLeft=3;spacingRight=3;rotatable=0;labelPosition=right;points=[];portConstraint=eastwest;strokeColor=inherit;" vertex="1" parent="bdfrWbdDiE_PRyxbpn6V-14">
          <mxGeometry y="80" width="560" height="12" as="geometry" />
        </mxCell>
        <mxCell id="bdfrWbdDiE_PRyxbpn6V-17" value="+&amp;nbsp;__init__(parent)&lt;br&gt;+ transferir(self)&lt;br&gt;+ volver(self)" style="text;strokeColor=none;fillColor=none;align=left;verticalAlign=top;spacingLeft=4;spacingRight=4;overflow=hidden;rotatable=0;points=[[0,0.5],[1,0.5]];portConstraint=eastwest;whiteSpace=wrap;html=1;" vertex="1" parent="bdfrWbdDiE_PRyxbpn6V-14">
          <mxGeometry y="92" width="560" height="68" as="geometry" />
        </mxCell>
        <mxCell id="bdfrWbdDiE_PRyxbpn6V-18" value="RegisterWindow" style="swimlane;fontStyle=1;align=center;verticalAlign=top;childLayout=stackLayout;horizontal=1;startSize=26;horizontalStack=0;resizeParent=1;resizeParentMax=0;resizeLast=0;collapsible=1;marginBottom=0;whiteSpace=wrap;html=1;" vertex="1" parent="1">
          <mxGeometry x="210" y="-150" width="560" height="120" as="geometry" />
        </mxCell>
        <mxCell id="bdfrWbdDiE_PRyxbpn6V-22" value="- usuario: Usuario" style="text;html=1;align=left;verticalAlign=middle;resizable=0;points=[];autosize=1;strokeColor=none;fillColor=none;" vertex="1" parent="bdfrWbdDiE_PRyxbpn6V-18">
          <mxGeometry y="26" width="560" height="30" as="geometry" />
        </mxCell>
        <mxCell id="bdfrWbdDiE_PRyxbpn6V-20" value="" style="line;strokeWidth=1;fillColor=none;align=left;verticalAlign=middle;spacingTop=-1;spacingLeft=3;spacingRight=3;rotatable=0;labelPosition=right;points=[];portConstraint=eastwest;strokeColor=inherit;" vertex="1" parent="bdfrWbdDiE_PRyxbpn6V-18">
          <mxGeometry y="56" width="560" height="14" as="geometry" />
        </mxCell>
        <mxCell id="bdfrWbdDiE_PRyxbpn6V-21" value="&lt;div&gt;+ __init__(master)&lt;/div&gt;&lt;div&gt;+ validar_correo(correo: str)&amp;nbsp;&lt;/div&gt;&lt;div&gt;+ registrar_usuario()&lt;/div&gt;" style="text;strokeColor=none;fillColor=none;align=left;verticalAlign=top;spacingLeft=4;spacingRight=4;overflow=hidden;rotatable=0;points=[[0,0.5],[1,0.5]];portConstraint=eastwest;whiteSpace=wrap;html=1;" vertex="1" parent="bdfrWbdDiE_PRyxbpn6V-18">
          <mxGeometry y="70" width="560" height="50" as="geometry" />
        </mxCell>
        <mxCell id="bdfrWbdDiE_PRyxbpn6V-25" value="PrincipalWindow" style="swimlane;fontStyle=1;align=center;verticalAlign=top;childLayout=stackLayout;horizontal=1;startSize=26;horizontalStack=0;resizeParent=1;resizeParentMax=0;resizeLast=0;collapsible=1;marginBottom=0;whiteSpace=wrap;html=1;" vertex="1" parent="1">
          <mxGeometry x="1660" y="-110" width="560" height="230" as="geometry" />
        </mxCell>
        <mxCell id="bdfrWbdDiE_PRyxbpn6V-26" value="- usuario: Usuario&lt;br&gt;- email_entry: tk.Entry&lt;br&gt;- password_entry: tk.Entry&lt;br&gt;- login_button: tk.Button&lt;br&gt;- register_button: tk.Button&lt;br&gt;- fondo_photo: ImageTk.PhotoImage" style="text;strokeColor=none;fillColor=none;align=left;verticalAlign=top;spacingLeft=4;spacingRight=4;overflow=hidden;rotatable=0;points=[[0,0.5],[1,0.5]];portConstraint=eastwest;whiteSpace=wrap;html=1;" vertex="1" parent="bdfrWbdDiE_PRyxbpn6V-25">
          <mxGeometry y="26" width="560" height="114" as="geometry" />
        </mxCell>
        <mxCell id="bdfrWbdDiE_PRyxbpn6V-27" value="" style="line;strokeWidth=1;fillColor=none;align=left;verticalAlign=middle;spacingTop=-1;spacingLeft=3;spacingRight=3;rotatable=0;labelPosition=right;points=[];portConstraint=eastwest;strokeColor=inherit;" vertex="1" parent="bdfrWbdDiE_PRyxbpn6V-25">
          <mxGeometry y="140" width="560" height="12" as="geometry" />
        </mxCell>
        <mxCell id="bdfrWbdDiE_PRyxbpn6V-28" value="+&amp;nbsp;__init__()&lt;br&gt;+&amp;nbsp;open_register_window()&lt;br&gt;+&amp;nbsp;login()&lt;br&gt;+&amp;nbsp;olvide_contraseña()" style="text;strokeColor=none;fillColor=none;align=left;verticalAlign=top;spacingLeft=4;spacingRight=4;overflow=hidden;rotatable=0;points=[[0,0.5],[1,0.5]];portConstraint=eastwest;whiteSpace=wrap;html=1;" vertex="1" parent="bdfrWbdDiE_PRyxbpn6V-25">
          <mxGeometry y="152" width="560" height="78" as="geometry" />
        </mxCell>
        <mxCell id="bdfrWbdDiE_PRyxbpn6V-29" value="ActualizarDatosWindow" style="swimlane;fontStyle=1;align=center;verticalAlign=top;childLayout=stackLayout;horizontal=1;startSize=26;horizontalStack=0;resizeParent=1;resizeParentMax=0;resizeLast=0;collapsible=1;marginBottom=0;whiteSpace=wrap;html=1;" vertex="1" parent="1">
          <mxGeometry x="1654" y="584" width="560" height="190" as="geometry" />
        </mxCell>
        <mxCell id="bdfrWbdDiE_PRyxbpn6V-30" value="&lt;div&gt;- usuario: Usuario&lt;/div&gt;&lt;div&gt;- name_entry: Entry&lt;/div&gt;&lt;div&gt;- apellido_entry: Entry&lt;/div&gt;&lt;div&gt;- email_entry: Entry&lt;/div&gt;&lt;div&gt;- contraseña_entry: Entry&lt;/div&gt;&lt;div&gt;- verificar_contraseña_entry: Entry&amp;nbsp;&lt;/div&gt;" style="text;html=1;align=left;verticalAlign=middle;resizable=0;points=[];autosize=1;strokeColor=none;fillColor=none;" vertex="1" parent="bdfrWbdDiE_PRyxbpn6V-29">
          <mxGeometry y="26" width="560" height="100" as="geometry" />
        </mxCell>
        <mxCell id="bdfrWbdDiE_PRyxbpn6V-31" value="" style="line;strokeWidth=1;fillColor=none;align=left;verticalAlign=middle;spacingTop=-1;spacingLeft=3;spacingRight=3;rotatable=0;labelPosition=right;points=[];portConstraint=eastwest;strokeColor=inherit;" vertex="1" parent="bdfrWbdDiE_PRyxbpn6V-29">
          <mxGeometry y="126" width="560" height="4" as="geometry" />
        </mxCell>
        <mxCell id="bdfrWbdDiE_PRyxbpn6V-32" value="+&amp;nbsp;__init__(master)&lt;br&gt;+&amp;nbsp;validar_correo(correo: str)&lt;br&gt;+&amp;nbsp;actualizar_usuario()" style="text;strokeColor=none;fillColor=none;align=left;verticalAlign=top;spacingLeft=4;spacingRight=4;overflow=hidden;rotatable=0;points=[[0,0.5],[1,0.5]];portConstraint=eastwest;whiteSpace=wrap;html=1;" vertex="1" parent="bdfrWbdDiE_PRyxbpn6V-29">
          <mxGeometry y="130" width="560" height="60" as="geometry" />
        </mxCell>
        <mxCell id="bdfrWbdDiE_PRyxbpn6V-37" value="Ventana_despues_click_RETIRAR" style="swimlane;fontStyle=1;align=center;verticalAlign=top;childLayout=stackLayout;horizontal=1;startSize=26;horizontalStack=0;resizeParent=1;resizeParentMax=0;resizeLast=0;collapsible=1;marginBottom=0;whiteSpace=wrap;html=1;" vertex="1" parent="1">
          <mxGeometry x="1010" y="740" width="560" height="110" as="geometry" />
        </mxCell>
        <mxCell id="bdfrWbdDiE_PRyxbpn6V-38" value="- imagen" style="text;html=1;align=left;verticalAlign=middle;resizable=0;points=[];autosize=1;strokeColor=none;fillColor=none;" vertex="1" parent="bdfrWbdDiE_PRyxbpn6V-37">
          <mxGeometry y="26" width="560" height="30" as="geometry" />
        </mxCell>
        <mxCell id="bdfrWbdDiE_PRyxbpn6V-39" value="" style="line;strokeWidth=1;fillColor=none;align=left;verticalAlign=middle;spacingTop=-1;spacingLeft=3;spacingRight=3;rotatable=0;labelPosition=right;points=[];portConstraint=eastwest;strokeColor=inherit;" vertex="1" parent="bdfrWbdDiE_PRyxbpn6V-37">
          <mxGeometry y="56" width="560" height="4" as="geometry" />
        </mxCell>
        <mxCell id="bdfrWbdDiE_PRyxbpn6V-40" value="&lt;div&gt;+ __init__()&lt;/div&gt;&lt;div&gt;+ volver()&lt;/div&gt;&lt;div&gt;- resize_image(path: str, width: int, height: int)&lt;/div&gt;" style="text;strokeColor=none;fillColor=none;align=left;verticalAlign=top;spacingLeft=4;spacingRight=4;overflow=hidden;rotatable=0;points=[[0,0.5],[1,0.5]];portConstraint=eastwest;whiteSpace=wrap;html=1;" vertex="1" parent="bdfrWbdDiE_PRyxbpn6V-37">
          <mxGeometry y="60" width="560" height="50" as="geometry" />
        </mxCell>
        <mxCell id="bdfrWbdDiE_PRyxbpn6V-41" value="OlvideContraseña" style="swimlane;fontStyle=1;align=center;verticalAlign=top;childLayout=stackLayout;horizontal=1;startSize=26;horizontalStack=0;resizeParent=1;resizeParentMax=0;resizeLast=0;collapsible=1;marginBottom=0;whiteSpace=wrap;html=1;" vertex="1" parent="1">
          <mxGeometry x="950" y="540" width="560" height="126" as="geometry" />
        </mxCell>
        <mxCell id="bdfrWbdDiE_PRyxbpn6V-42" value="- usuario: Usuario    " style="text;html=1;align=left;verticalAlign=middle;resizable=0;points=[];autosize=1;strokeColor=none;fillColor=none;" vertex="1" parent="bdfrWbdDiE_PRyxbpn6V-41">
          <mxGeometry y="26" width="560" height="30" as="geometry" />
        </mxCell>
        <mxCell id="bdfrWbdDiE_PRyxbpn6V-43" value="" style="line;strokeWidth=1;fillColor=none;align=left;verticalAlign=middle;spacingTop=-1;spacingLeft=3;spacingRight=3;rotatable=0;labelPosition=right;points=[];portConstraint=eastwest;strokeColor=inherit;" vertex="1" parent="bdfrWbdDiE_PRyxbpn6V-41">
          <mxGeometry y="56" width="560" height="14" as="geometry" />
        </mxCell>
        <mxCell id="bdfrWbdDiE_PRyxbpn6V-44" value="&lt;div&gt;+ __init__()&lt;/div&gt;&lt;div&gt;+ enviar_correo()&lt;/div&gt;" style="text;strokeColor=none;fillColor=none;align=left;verticalAlign=top;spacingLeft=4;spacingRight=4;overflow=hidden;rotatable=0;points=[[0,0.5],[1,0.5]];portConstraint=eastwest;whiteSpace=wrap;html=1;" vertex="1" parent="bdfrWbdDiE_PRyxbpn6V-41">
          <mxGeometry y="70" width="560" height="56" as="geometry" />
        </mxCell>
        <mxCell id="bdfrWbdDiE_PRyxbpn6V-33" value="VentanaRetiro" style="swimlane;fontStyle=1;align=center;verticalAlign=top;childLayout=stackLayout;horizontal=1;startSize=26;horizontalStack=0;resizeParent=1;resizeParentMax=0;resizeLast=0;collapsible=1;marginBottom=0;whiteSpace=wrap;html=1;" vertex="1" parent="1">
          <mxGeometry x="300" y="490" width="560" height="160" as="geometry" />
        </mxCell>
        <mxCell id="bdfrWbdDiE_PRyxbpn6V-34" value="- usuario: Usuario&lt;br&gt;- monto_entry: Entry" style="text;html=1;align=left;verticalAlign=middle;resizable=0;points=[];autosize=1;strokeColor=none;fillColor=none;" vertex="1" parent="bdfrWbdDiE_PRyxbpn6V-33">
          <mxGeometry y="26" width="560" height="40" as="geometry" />
        </mxCell>
        <mxCell id="bdfrWbdDiE_PRyxbpn6V-35" value="" style="line;strokeWidth=1;fillColor=none;align=left;verticalAlign=middle;spacingTop=-1;spacingLeft=3;spacingRight=3;rotatable=0;labelPosition=right;points=[];portConstraint=eastwest;strokeColor=inherit;" vertex="1" parent="bdfrWbdDiE_PRyxbpn6V-33">
          <mxGeometry y="66" width="560" height="34" as="geometry" />
        </mxCell>
        <mxCell id="bdfrWbdDiE_PRyxbpn6V-36" value="&lt;div&gt;+ __init__(parent)&lt;/div&gt;&lt;div&gt;+ retirar()&lt;/div&gt;&lt;div&gt;+ volver()&amp;nbsp;&amp;nbsp;&lt;/div&gt;" style="text;strokeColor=none;fillColor=none;align=left;verticalAlign=top;spacingLeft=4;spacingRight=4;overflow=hidden;rotatable=0;points=[[0,0.5],[1,0.5]];portConstraint=eastwest;whiteSpace=wrap;html=1;" vertex="1" parent="bdfrWbdDiE_PRyxbpn6V-33">
          <mxGeometry y="100" width="560" height="60" as="geometry" />
        </mxCell>
        <mxCell id="bdfrWbdDiE_PRyxbpn6V-46" value="" style="endArrow=none;html=1;rounded=0;exitX=0.449;exitY=-0.012;exitDx=0;exitDy=0;exitPerimeter=0;entryX=0.351;entryY=0.006;entryDx=0;entryDy=0;entryPerimeter=0;" edge="1" parent="1" source="VVCzBVWR_Hz-Hk0Qz9Dq-1" target="bdfrWbdDiE_PRyxbpn6V-25">
          <mxGeometry width="50" height="50" relative="1" as="geometry">
            <mxPoint x="1300" y="-140" as="sourcePoint" />
            <mxPoint x="1700" y="-180" as="targetPoint" />
            <Array as="points">
              <mxPoint x="1240" y="-170" />
              <mxPoint x="1850" y="-190" />
            </Array>
          </mxGeometry>
        </mxCell>
        <mxCell id="bdfrWbdDiE_PRyxbpn6V-68" value="" style="endArrow=block;endSize=16;endFill=0;html=1;rounded=0;exitX=0.002;exitY=1.083;exitDx=0;exitDy=0;exitPerimeter=0;entryX=1.007;entryY=0.841;entryDx=0;entryDy=0;entryPerimeter=0;" edge="1" parent="1" source="bdfrWbdDiE_PRyxbpn6V-11" target="VVCzBVWR_Hz-Hk0Qz9Dq-4">
          <mxGeometry width="160" relative="1" as="geometry">
            <mxPoint x="1420" y="230" as="sourcePoint" />
            <mxPoint x="1580" y="230" as="targetPoint" />
          </mxGeometry>
        </mxCell>
        <mxCell id="bdfrWbdDiE_PRyxbpn6V-69" value="" style="endArrow=block;endSize=16;endFill=0;html=1;rounded=0;exitX=0.001;exitY=0.931;exitDx=0;exitDy=0;exitPerimeter=0;entryX=0.824;entryY=1.023;entryDx=0;entryDy=0;entryPerimeter=0;" edge="1" parent="1" source="bdfrWbdDiE_PRyxbpn6V-15" target="VVCzBVWR_Hz-Hk0Qz9Dq-4">
          <mxGeometry width="160" relative="1" as="geometry">
            <mxPoint x="1430" y="240" as="sourcePoint" />
            <mxPoint x="1590" y="240" as="targetPoint" />
          </mxGeometry>
        </mxCell>
        <mxCell id="bdfrWbdDiE_PRyxbpn6V-70" value="" style="endArrow=block;endSize=16;endFill=0;html=1;rounded=0;exitX=-0.007;exitY=0.099;exitDx=0;exitDy=0;exitPerimeter=0;entryX=0.716;entryY=1.077;entryDx=0;entryDy=0;entryPerimeter=0;" edge="1" parent="1" source="bdfrWbdDiE_PRyxbpn6V-30" target="VVCzBVWR_Hz-Hk0Qz9Dq-4">
          <mxGeometry width="160" relative="1" as="geometry">
            <mxPoint x="1440" y="250" as="sourcePoint" />
            <mxPoint x="1600" y="250" as="targetPoint" />
          </mxGeometry>
        </mxCell>
        <mxCell id="bdfrWbdDiE_PRyxbpn6V-71" value="" style="endArrow=block;endSize=16;endFill=0;html=1;rounded=0;exitX=0.625;exitY=0.009;exitDx=0;exitDy=0;exitPerimeter=0;entryX=0.543;entryY=1.008;entryDx=0;entryDy=0;entryPerimeter=0;" edge="1" parent="1" source="bdfrWbdDiE_PRyxbpn6V-41" target="VVCzBVWR_Hz-Hk0Qz9Dq-4">
          <mxGeometry width="160" relative="1" as="geometry">
            <mxPoint x="1450" y="260" as="sourcePoint" />
            <mxPoint x="1610" y="260" as="targetPoint" />
          </mxGeometry>
        </mxCell>
        <mxCell id="bdfrWbdDiE_PRyxbpn6V-72" value="" style="endArrow=block;endSize=16;endFill=0;html=1;rounded=0;exitX=0.969;exitY=-0.002;exitDx=0;exitDy=0;exitPerimeter=0;entryX=0.196;entryY=1.029;entryDx=0;entryDy=0;entryPerimeter=0;" edge="1" parent="1" source="bdfrWbdDiE_PRyxbpn6V-33" target="VVCzBVWR_Hz-Hk0Qz9Dq-4">
          <mxGeometry width="160" relative="1" as="geometry">
            <mxPoint x="1040" y="320" as="sourcePoint" />
            <mxPoint x="1241" y="290" as="targetPoint" />
          </mxGeometry>
        </mxCell>
        <mxCell id="bdfrWbdDiE_PRyxbpn6V-73" value="" style="endArrow=block;endSize=16;endFill=0;html=1;rounded=0;exitX=1.014;exitY=0.081;exitDx=0;exitDy=0;exitPerimeter=0;entryX=0.002;entryY=0.092;entryDx=0;entryDy=0;entryPerimeter=0;" edge="1" parent="1" source="bdfrWbdDiE_PRyxbpn6V-21" target="VVCzBVWR_Hz-Hk0Qz9Dq-4">
          <mxGeometry width="160" relative="1" as="geometry">
            <mxPoint x="810" y="-50" as="sourcePoint" />
            <mxPoint x="970" y="-50" as="targetPoint" />
          </mxGeometry>
        </mxCell>
        <mxCell id="bdfrWbdDiE_PRyxbpn6V-75" value="" style="endArrow=block;endSize=16;endFill=0;html=1;rounded=0;exitX=0;exitY=0.5;exitDx=0;exitDy=0;entryX=1.008;entryY=0.128;entryDx=0;entryDy=0;entryPerimeter=0;" edge="1" parent="1" source="bdfrWbdDiE_PRyxbpn6V-26" target="VVCzBVWR_Hz-Hk0Qz9Dq-4">
          <mxGeometry width="160" relative="1" as="geometry">
            <mxPoint x="1460" y="340" as="sourcePoint" />
            <mxPoint x="1620" y="340" as="targetPoint" />
          </mxGeometry>
        </mxCell>
      </root>
    </mxGraphModel>
  </diagram>
</mxfile>
